<?xml version="1.0" encoding="utf-8"?>
<!-- Generator: Adobe Illustrator 26.4.1, SVG Export Plug-In . SVG Version: 6.00 Build 0)  -->
<svg version="1.1" id="Capa_1" xmlns="http://www.w3.org/2000/svg" xmlns:xlink="http://www.w3.org/1999/xlink" x="0px" y="0px"
	 viewBox="0 0 170 170" style="enable-background:new 0 0 170 170;" xml:space="preserve">
<style type="text/css">
	.st0{clip-path:url(#SVGID_00000171705099227829811800000011203705544413511082_);}
	.st1{fill:#E3EEEE;}
	.st2{opacity:0.18;clip-path:url(#SVGID_00000171705099227829811800000011203705544413511082_);}
	.st3{fill:#1588DD;}
</style>
<g>
	<defs>
		<rect id="SVGID_1_" width="170" height="170"/>
	</defs>
	<clipPath id="SVGID_00000039109548265268331440000009639695900291954076_">
		<use xlink:href="#SVGID_1_"  style="overflow:visible;"/>
	</clipPath>
	<g style="clip-path:url(#SVGID_00000039109548265268331440000009639695900291954076_);">
		<rect class="st1" width="170" height="170"/>
	</g>
	<g style="opacity:0.18;clip-path:url(#SVGID_00000039109548265268331440000009639695900291954076_);">
		<g>
			<path class="st3" d="M185.74,123.01c1.58-1.31,1.8-3.66,0.49-5.24c-1.31-1.58-3.66-1.8-5.24-0.48l-8.99,7.46l-17.7,14.7
				c-1.58,1.31-1.8,3.66-0.49,5.24c0.74,0.89,1.8,1.34,2.86,1.34c0.84,0,1.68-0.28,2.37-0.86L172,134.42L185.74,123.01z"/>
			<path class="st3" d="M18.74,121.01c1.58-1.31,1.8-3.66,0.49-5.24c-1.31-1.58-3.66-1.8-5.24-0.48L5,122.75l-17.7,14.7
				c-1.58,1.31-1.8,3.66-0.49,5.24c0.74,0.89,1.8,1.34,2.87,1.34c0.84,0,1.68-0.28,2.37-0.86L5,132.42L18.74,121.01z"/>
			<path class="st3" d="M-10.3,50.46c0.83,0,1.67-0.28,2.36-0.84l26.81-22c1.59-1.3,1.82-3.65,0.52-5.24
				c-1.3-1.59-3.65-1.82-5.23-0.52l-26.81,22c-1.59,1.3-1.82,3.65-0.52,5.24C-12.44,49.99-11.37,50.46-10.3,50.46z"/>
			<path class="st3" d="M156.7,53.46c0.83,0,1.67-0.28,2.36-0.84l26.81-22c1.59-1.3,1.82-3.65,0.52-5.24
				c-1.3-1.59-3.65-1.82-5.23-0.52l-26.81,22c-1.59,1.3-1.82,3.65-0.52,5.24C154.56,52.99,155.63,53.46,156.7,53.46z"/>
			<path class="st3" d="M103.15,58.37c0.31,1.82,1.88,3.1,3.66,3.1c0.21,0,0.42-0.02,0.63-0.05c2.03-0.34,3.39-2.26,3.05-4.29
				l-5.8-34.2c-0.34-2.03-2.25-3.38-4.29-3.05c-2.03,0.34-3.39,2.26-3.05,4.29L103.15,58.37z"/>
			<path class="st3" d="M109.22,86.86c-1.31-1.58-3.66-1.8-5.24-0.48L77.3,108.54c-1.58,1.31-1.8,3.66-0.49,5.24
				c0.74,0.89,1.8,1.34,2.87,1.34c0.84,0,1.68-0.28,2.37-0.86l26.68-22.16C110.32,90.79,110.54,88.44,109.22,86.86z"/>
			<path class="st3" d="M141.29,85.25c-1.76-1.06-4.05-0.5-5.11,1.26l-17.92,29.7c-1.06,1.76-0.5,4.05,1.26,5.11
				c0.6,0.36,1.26,0.54,1.92,0.54c1.26,0,2.49-0.64,3.19-1.8l17.92-29.7C143.62,88.6,143.05,86.31,141.29,85.25z"/>
			<path class="st3" d="M59.33,118.29l-8.21-41.41c-0.4-2.01-2.36-3.32-4.37-2.92c-2.02,0.4-3.33,2.36-2.93,4.37l8.21,41.41
				c0.35,1.77,1.91,3,3.65,3c0.24,0,0.48-0.02,0.73-0.07C58.42,122.26,59.74,120.31,59.33,118.29z"/>
			<path class="st3" d="M119.44,39.28c0.74,0.89,1.8,1.34,2.86,1.34c0.84,0,1.68-0.28,2.38-0.86l26.67-22.18
				c1.58-1.31,1.79-3.66,0.48-5.24c-1.31-1.58-3.66-1.8-5.24-0.48l-26.67,22.18C118.34,35.36,118.12,37.71,119.44,39.28z"/>
			<path class="st3" d="M20.05,110.06c0.42,0.15,0.85,0.23,1.28,0.23c1.52,0,2.94-0.94,3.5-2.45c0.7-1.93-0.29-4.07-2.22-4.77
				L-9.98,91.18c-1.93-0.7-4.06,0.29-4.77,2.22c-0.7,1.93,0.29,4.07,2.22,4.77L20.05,110.06z"/>
			<path class="st3" d="M185.05,108.06c0.42,0.15,0.85,0.23,1.28,0.23c1.52,0,2.94-0.94,3.5-2.45c0.7-1.93-0.29-4.07-2.22-4.77
				l-32.58-11.89c-1.93-0.7-4.06,0.29-4.77,2.22c-0.7,1.93,0.29,4.07,2.22,4.77L185.05,108.06z"/>
			<path class="st3" d="M22.49,47.35l-8.48,33.63c-0.5,1.99,0.7,4.01,2.7,4.52c0.3,0.08,0.61,0.11,0.91,0.11
				c1.66,0,3.18-1.12,3.6-2.81l8.48-33.63c0.5-1.99-0.7-4.01-2.7-4.52C25.01,44.16,22.99,45.36,22.49,47.35z"/>
			<path class="st3" d="M110.14,160.45c0.6,1.41,1.98,2.26,3.42,2.26c0.49,0,0.98-0.1,1.46-0.3c1.89-0.81,2.77-2.99,1.96-4.88
				l-13.65-31.88c-0.81-1.89-2.99-2.77-4.88-1.96c-1.89,0.81-2.77,3-1.96,4.88L110.14,160.45z"/>
			<path class="st3" d="M120.43,71.36c-2.01,0.44-3.28,2.42-2.84,4.43c0.38,1.74,1.92,2.93,3.63,2.93c0.26,0,0.53-0.03,0.8-0.09
				l10.98-2.4l22.92-5c2.01-0.44,3.28-2.42,2.84-4.43c-0.44-2.01-2.4-3.29-4.43-2.84L133,68.61L120.43,71.36z"/>
			<path class="st3" d="M128.18,148.95c-0.78,1.9,0.14,4.07,2.04,4.85c1.65,0.67,3.5,0.08,4.47-1.34c0.15-0.22,0.27-0.45,0.38-0.71
				l4.24-10.41l8.85-21.72c0.77-1.9-0.14-4.07-2.04-4.85c-1.9-0.77-4.07,0.12-4.85,2.04l-8.24,20.21L128.18,148.95z"/>
			<path class="st3" d="M57.49,52.13c-1.46,1.44-1.48,3.8-0.03,5.26l24.36,24.69c0.73,0.74,1.69,1.11,2.65,1.11
				c0.94,0,1.89-0.36,2.61-1.07c1.46-1.44,1.48-3.8,0.03-5.26L62.75,52.17C61.31,50.7,58.96,50.69,57.49,52.13z"/>
			<path class="st3" d="M15.84,141.05c-0.49,1.99,0.72,4.01,2.71,4.51l33.66,8.36c1.01,0.25,2.02,0.07,2.84-0.43
				c0.81-0.49,1.42-1.29,1.67-2.28c0.5-2-0.72-4.01-2.72-4.51l-33.66-8.36C18.36,137.83,16.34,139.05,15.84,141.05z"/>
			<path class="st3" d="M39.9,40.63c0.35,1.77,1.91,2.99,3.64,2.99c0.24,0,0.49-0.02,0.74-0.07c2.01-0.4,3.32-2.36,2.92-4.38
				L40.38,5.15c-0.4-2.02-2.35-3.32-4.38-2.92c-2.01,0.4-3.32,2.36-2.92,4.38L39.9,40.63z"/>
			<path class="st3" d="M81.66,148.75l-14.2,31.44c-0.85,1.87-0.01,4.08,1.86,4.92c0.5,0.22,1.02,0.33,1.53,0.33
				c1.42,0,2.77-0.82,3.39-2.19l14.2-31.44c0.85-1.87,0.01-4.07-1.86-4.92C84.71,146.05,82.51,146.88,81.66,148.75z"/>
			<path class="st3" d="M78.66-14.25l-14.2,31.44c-0.85,1.87-0.01,4.08,1.86,4.92c0.5,0.22,1.02,0.33,1.53,0.33
				c1.42,0,2.77-0.82,3.39-2.19l14.2-31.44c0.85-1.87,0.01-4.07-1.86-4.92C81.71-16.95,79.51-16.12,78.66-14.25z"/>
		</g>
	</g>
</g>
</svg>
